<svg xmlns:dc="http://purl.org/dc/elements/1.1/" xmlns:cc="http://creativecommons.org/ns#" xmlns:rdf="http://www.w3.org/1999/02/22-rdf-syntax-ns#" xmlns:svg="http://www.w3.org/2000/svg" xmlns="http://www.w3.org/2000/svg" xmlns:sodipodi="http://sodipodi.sourceforge.net/DTD/sodipodi-0.dtd" xmlns:inkscape="http://www.inkscape.org/namespaces/inkscape" viewBox="0 0 8.4666665 10.583333625" version="1.1" x="0px" y="0px"><g transform="translate(0,-288.53333)"><path style="color:#000000;font-style:normal;font-variant:normal;font-weight:normal;font-stretch:normal;font-size:medium;line-height:normal;font-family:sans-serif;font-variant-ligatures:normal;font-variant-position:normal;font-variant-caps:normal;font-variant-numeric:normal;font-variant-alternates:normal;font-feature-settings:normal;text-indent:0;text-align:start;text-decoration:none;text-decoration-line:none;text-decoration-style:solid;text-decoration-color:#000000;letter-spacing:normal;word-spacing:normal;text-transform:none;writing-mode:lr-tb;direction:ltr;text-orientation:mixed;dominant-baseline:auto;baseline-shift:baseline;text-anchor:start;white-space:normal;shape-padding:0;clip-rule:nonzero;display:inline;overflow:visible;visibility:visible;opacity:1;isolation:auto;mix-blend-mode:normal;color-interpolation:sRGB;color-interpolation-filters:linearRGB;solid-color:#000000;solid-opacity:1;vector-effect:none;fill:#000000;fill-opacity:1;fill-rule:nonzero;stroke:none;stroke-width:2;stroke-linecap:round;stroke-linejoin:round;stroke-miterlimit:4;stroke-dasharray:none;stroke-dashoffset:0;stroke-opacity:1;color-rendering:auto;image-rendering:auto;shape-rendering:auto;text-rendering:auto;enable-background:accumulate" d="M 15.996094 4 C 14.70136 4 13.598983 4.8432134 13.183594 6.0019531 L 1.9863281 6.0019531 A 1.0001001 1.0001001 0 0 0 1.8828125 6.0019531 A 1.0015858 1.0015858 0 0 0 1.9863281 8.0019531 L 13.1875 8.0019531 C 13.605176 9.1584299 14.704396 10.001953 15.996094 10.001953 C 17.287792 10.001953 18.392869 9.1584299 18.8125 8.0019531 L 29.984375 8.0019531 A 1.000252 1.000252 0 1 0 29.984375 6.0019531 L 18.816406 6.0019531 C 18.39907 4.8432134 17.290827 4 15.996094 4 z M 8.0019531 13 C 6.7096421 13 5.6047159 13.842664 5.1855469 15 L 2.015625 15 A 1.000252 1.000252 0 1 0 2.015625 17 L 5.1835938 17 C 5.6009762 18.158647 6.7072805 19 8.0019531 19 C 9.2966862 19 10.399064 18.158731 10.814453 17 L 30.015625 17 A 1.000252 1.000252 0 1 0 30.015625 15 L 10.8125 15 C 10.395328 13.842584 9.2943215 13 8.0019531 13 z M 25.998047 21.998047 C 24.705662 21.998047 23.60466 22.840623 23.1875 23.998047 L 2.015625 23.998047 A 1.000252 1.000252 0 1 0 2.015625 25.998047 L 23.185547 25.998047 C 23.600936 27.156778 24.703314 28 25.998047 28 C 27.29278 28 28.401023 27.156778 28.818359 25.998047 L 30.015625 25.998047 A 1.000252 1.000252 0 1 0 30.015625 23.998047 L 28.816406 23.998047 C 28.397293 22.840623 27.290433 21.998047 25.998047 21.998047 z " transform="matrix(0.26458333,0,0,0.26458333,0,288.53333)"/></g><text x="0" y="23.4666669" fill="#000000" font-size="5px" font-weight="bold" font-family="'Helvetica Neue', Helvetica, Arial-Unicode, Arial, Sans-serif">Created by bayu wibowo</text><text x="0" y="28.4666669" fill="#000000" font-size="5px" font-weight="bold" font-family="'Helvetica Neue', Helvetica, Arial-Unicode, Arial, Sans-serif">from the Noun Project</text></svg>